%
M48
M72
T01C0.0320
T02C0.0400
T03C0.0440
T04C0.0512
%
T01
X8000Y11500
X7250Y11000
X8000Y10500
X12500Y10000
X10500Y10000
X12000Y11500
X10000Y11500
X12500Y7000
X10500Y7000
X8000Y9000
X7250Y8500
X8000Y8000
X11500Y8500
X9500Y8500
X12500Y4000
X10500Y4000
X8000Y6500
X7250Y6000
X8000Y5500
X11500Y5500
X9500Y5500
X12500Y1500
X10500Y1500
X8000Y4000
X7250Y3500
X8000Y3000
X11500Y2500
X9500Y2500
X25500Y3500
X25500Y5500
X25000Y8000
X25500Y7250
X26000Y8000
X23500Y3500
X23500Y5500
T02
X1500Y20500
X500Y20500
X14500Y9500
X14500Y8500
X14500Y7500
X14500Y6500
X14500Y5500
X14500Y4500
X8500Y20500
X9500Y20500
X10500Y20500
X11500Y20500
X12500Y20500
X19500Y2000
X20500Y2000
X21500Y2000
X22500Y2000
T03
X5000Y10500
X1000Y10500
X5000Y8500
X1000Y8500
X5500Y6500
X1500Y6500
X5000Y4500
X1000Y4500
X26000Y11000
X22000Y11000
T04
X4500Y18000
X1500Y13000
X4500Y13000
X1500Y19000
X1500Y17150
X10000Y18000
X7000Y13000
X10000Y13000
X7000Y19000
X7000Y17150
X15500Y18000
X12500Y13000
X15500Y13000
X12500Y19000
X12500Y17150
X20500Y18000
X17500Y13000
X20500Y13000
X17500Y19000
X17500Y17150
X25000Y18000
X22000Y13000
X25000Y13000
X22000Y19000
X22000Y17150
M30
